<svg width="20" height="20" viewBox="0 0 20 20" fill="none" xmlns="http://www.w3.org/2000/svg">
<path d="M9.99996 10.8333L3.33329 6.66659V14.9999H10.8333V16.6666H3.33329C2.87496 16.6666 2.4826 16.5034 2.15621 16.177C1.82982 15.8506 1.66663 15.4583 1.66663 14.9999V4.99992C1.66663 4.54159 1.82982 4.14922 2.15621 3.82284C2.4826 3.49645 2.87496 3.33325 3.33329 3.33325H16.6666C17.125 3.33325 17.5173 3.49645 17.8437 3.82284C18.1701 4.14922 18.3333 4.54159 18.3333 4.99992V10.8333H16.6666V6.66659L9.99996 10.8333ZM9.99996 9.16659L16.6666 4.99992H3.33329L9.99996 9.16659ZM15.8333 19.1666L14.6666 17.9999L15.9791 16.6666H12.5V14.9999H15.9791L14.6458 13.6666L15.8333 12.4999L19.1666 15.8333L15.8333 19.1666ZM3.33329 6.66659V15.8333V10.8333V10.8958V4.99992V6.66659Z" fill="#FFCC17"/>
</svg>
